<?xml version="1.0" standalone="no"?><!DOCTYPE svg PUBLIC "-//W3C//DTD SVG 1.1//EN" "http://www.w3.org/Graphics/SVG/1.1/DTD/svg11.dtd"><svg t="1621932098579" class="icon" viewBox="0 0 1097 1024" version="1.1" xmlns="http://www.w3.org/2000/svg" p-id="2388" xmlns:xlink="http://www.w3.org/1999/xlink" width="51.421875" height="48"><defs><style type="text/css"></style></defs><path d="M548.571429 384c90.843429 0 164.571429 73.728 164.571428 164.571429s-73.728 164.571429-164.571428 164.571428-164.571429-73.728-164.571429-164.571428 73.728-164.571429 164.571429-164.571429zM950.857143 146.285714c80.566857 0 146.285714 65.718857 146.285714 146.285715v512c0 80.566857-65.718857 146.285714-146.285714 146.285714H146.285714c-80.566857 0-146.285714-65.718857-146.285714-146.285714V292.571429c0-80.566857 65.718857-146.285714 146.285714-146.285715h128l29.147429-77.714285C317.732571 30.866286 362.276571 0 402.285714 0h292.571429c40.009143 0 84.553143 30.866286 98.852571 68.571429L822.857143 146.285714H950.857143zM548.571429 804.571429c141.129143 0 256-114.870857 256-256s-114.870857-256-256-256-256 114.870857-256 256 114.870857 256 256 256z" fill="#2c2c2c" p-id="2389"></path></svg>