<?xml version="1.0" standalone="no"?><!DOCTYPE svg PUBLIC "-//W3C//DTD SVG 1.1//EN" "http://www.w3.org/Graphics/SVG/1.1/DTD/svg11.dtd"><svg t="1621932041131" class="icon" viewBox="0 0 1024 1024" version="1.1" xmlns="http://www.w3.org/2000/svg" p-id="1208" width="48" height="48" xmlns:xlink="http://www.w3.org/1999/xlink"><defs><style type="text/css"></style></defs><path d="M922.829 314.104C816.682 329.759 735.707 412.401 735.707 512s80.975 182.241 187.122 197.896c19.288 2.845 36.584-12.179 36.584-31.676V345.78c0.001-19.497-17.296-34.521-36.584-31.676zM650.853 234.295H126.299c-33.941 0-61.712 27.771-61.712 61.712v431.986c0 33.941 27.771 61.712 61.712 61.712h524.554c33.941 0 61.712-27.771 61.712-61.712v-85.54c-33.583-35.084-53.998-80.594-53.998-130.453s20.415-95.369 53.998-130.453v-85.54c0-33.941-27.772-61.712-61.712-61.712z" p-id="1209" fill="#2c2c2c"></path></svg>